<svg width="18" height="22" viewBox="0 0 18 22" fill="none" xmlns="http://www.w3.org/2000/svg">
<path fill-rule="evenodd" clip-rule="evenodd" d="M13.6415 15.2445C15.0423 13.3001 16 11.1631 16 9C16 5.13401 12.866 2 9 2C5.13401 2 2 5.13401 2 9C2 11.1631 2.95769 13.3001 4.35846 15.2445C5.74868 17.1742 7.4581 18.7503 8.6769 19.7485C8.8768 19.9122 9.1232 19.9122 9.3231 19.7485C10.5419 18.7503 12.2513 17.1742 13.6415 15.2445ZM10.5904 21.2957C13.1746 19.1791 18 14.4917 18 9C18 4.02944 13.9706 0 9 0C4.02944 0 0 4.02944 0 9C0 14.4917 4.82537 19.1791 7.4096 21.2957C8.3466 22.0631 9.6534 22.0631 10.5904 21.2957Z" fill="#6C5DD3"/>
<path fill-rule="evenodd" clip-rule="evenodd" d="M8.99999 7C7.8954 7 7 7.89542 7 8.99999C7 10.1046 7.8954 11 8.99999 11C10.1046 11 11 10.1046 11 8.99999C11 7.89542 10.1046 7 8.99999 7ZM5 8.99999C5 6.79086 6.79086 5 8.99999 5C11.2091 5 13 6.79086 13 8.99999C13 11.2091 11.2091 13 8.99999 13C6.79086 13 5 11.2091 5 8.99999Z" fill="#6C5DD3"/>
</svg>
