<svg width="1620" height="366" viewBox="0 0 1620 366" fill="none" xmlns="http://www.w3.org/2000/svg">
<path d="M87.5 0.5H1532.5V365.5H87.5V0.5Z" fill="#6C5DD3" stroke="black"/>
<path d="M0 0H1620V366H0V0Z" fill="#6C5DD3"/>
<mask id="mask0_13_19" style="mask-type:alpha" maskUnits="userSpaceOnUse" x="0" y="0" width="1620" height="366">
<path d="M0 0H1620V366H0V0Z" fill="#6C5DD3"/>
</mask>
<g mask="url(#mask0_13_19)">
<path d="M-83.7119 378.332L58.8624 417.138C77.1653 422.119 96.0508 417.135 109.379 403.807C122.708 390.478 127.692 371.593 122.711 353.29L83.904 210.716C78.9196 192.396 65.0018 178.505 46.6692 173.554C28.4029 168.622 9.55389 173.617 -3.74482 186.915L-107.512 290.683C-120.811 303.981 -125.805 322.83 -120.874 341.097C-118.395 350.28 -113.67 358.353 -107.268 364.755C-100.892 371.131 -92.855 375.846 -83.7119 378.332Z" fill="#6153BB"/>
<path d="M-114.285 383.727L28.2888 422.534C46.5917 427.515 65.4771 422.531 78.8056 409.202C92.134 395.874 97.1182 376.988 92.1371 358.686L53.3304 216.111C48.3459 197.792 34.4281 183.9 16.0955 178.949C-2.17076 174.018 -21.0198 179.012 -34.3185 192.311L-138.086 296.078C-151.385 309.377 -156.379 328.226 -151.448 346.492C-148.969 355.675 -144.244 363.749 -137.841 370.151C-131.466 376.527 -123.429 381.242 -114.285 383.727Z" fill="#FFAB7C"/>
<path d="M1901.9 31.0606L1786.51 -170.647C1771.69 -196.541 1745.15 -212 1715.5 -212C1685.86 -212 1659.31 -196.541 1644.5 -170.647L1529.1 31.0607C1514.27 56.9762 1514.3 87.9019 1529.18 113.795C1544.01 139.593 1570.53 155 1600.1 155L1830.9 155C1860.48 155 1886.99 139.593 1901.82 113.795C1909.28 100.826 1913 86.5939 1913 72.354C1913 58.1733 1909.31 43.9925 1901.9 31.0606Z" fill="#0D1CA9" fill-opacity="0.34"/>
<path d="M1941.9 59.0606L1826.51 -142.647C1811.69 -168.541 1785.15 -184 1755.5 -184C1725.86 -184 1699.31 -168.541 1684.5 -142.647L1569.1 59.0607C1554.27 84.9762 1554.3 115.902 1569.18 141.795C1584.01 167.593 1610.53 183 1640.1 183L1870.9 183C1900.48 183 1926.99 167.593 1941.82 141.795C1949.28 128.826 1953 114.594 1953 100.354C1953 86.1733 1949.31 71.9925 1941.9 59.0606Z" fill="#FFAB7C"/>
<path d="M1572.11 315.302L1595.63 328.459C1598.65 330.148 1600.45 333.175 1600.45 336.555C1600.45 339.934 1598.65 342.961 1595.63 344.65L1572.11 357.807C1569.09 359.498 1565.49 359.495 1562.47 357.798C1559.46 356.107 1557.67 353.084 1557.67 349.712L1557.67 323.397C1557.67 320.025 1559.46 317.002 1562.47 315.311C1563.98 314.461 1565.64 314.036 1567.3 314.036C1568.95 314.036 1570.61 314.458 1572.11 315.302Z" fill="#5A49CA"/>
<path d="M1535.34 315.302L1511.82 328.459C1508.8 330.148 1507 333.175 1507 336.555C1507 339.934 1508.8 342.961 1511.82 344.65L1535.34 357.807C1538.36 359.498 1541.96 359.495 1544.98 357.798C1547.99 356.107 1549.78 353.084 1549.78 349.712V323.397C1549.78 320.025 1547.99 317.002 1544.98 315.311C1543.47 314.461 1541.81 314.036 1540.15 314.036C1538.5 314.036 1536.84 314.458 1535.34 315.302Z" fill="#5A49CA"/>
<path d="M1673.45 315.302L1696.96 328.459C1699.98 330.148 1701.78 333.175 1701.78 336.555C1701.78 339.934 1699.98 342.961 1696.96 344.65L1673.45 357.807C1670.43 359.498 1666.82 359.495 1663.8 357.798C1660.79 356.107 1659 353.084 1659 349.712V323.397C1659 320.025 1660.79 317.002 1663.8 315.311C1665.31 314.461 1666.97 314.036 1668.63 314.036C1670.29 314.036 1671.94 314.458 1673.45 315.302Z" fill="#5A49CA"/>
<path d="M1636.67 315.302L1613.15 328.459C1610.13 330.148 1608.33 333.175 1608.33 336.555C1608.33 339.934 1610.13 342.961 1613.15 344.65L1636.67 357.807C1639.69 359.498 1643.29 359.495 1646.31 357.798C1649.32 356.107 1651.12 353.084 1651.12 349.712V323.397C1651.12 320.025 1649.32 317.002 1646.31 315.311C1644.8 314.461 1643.14 314.036 1641.48 314.036C1639.83 314.036 1638.18 314.458 1636.67 315.302Z" fill="#5A49CA"/>
<path d="M1586 312.771L1562.49 299.614C1559.47 297.925 1557.67 294.898 1557.67 291.518C1557.67 288.138 1559.47 285.112 1562.49 283.423L1586 270.266C1589.02 268.575 1592.63 268.578 1595.65 270.275C1598.65 271.966 1600.45 274.989 1600.45 278.361V304.675C1600.45 308.048 1598.65 311.071 1595.65 312.762C1594.14 313.612 1592.48 314.036 1590.82 314.036C1589.16 314.036 1587.51 313.615 1586 312.771Z" fill="#5A49CA"/>
<path d="M1586 401.718L1562.49 388.561C1559.47 386.871 1557.67 383.845 1557.67 380.465C1557.67 377.085 1559.47 374.059 1562.49 372.369L1586 359.212C1589.02 357.521 1592.63 357.525 1595.65 359.222C1598.65 360.912 1600.45 363.935 1600.45 367.308L1600.45 393.622C1600.45 396.994 1598.65 400.018 1595.65 401.708C1594.14 402.558 1592.48 402.983 1590.82 402.983C1589.16 402.983 1587.51 402.562 1586 401.718Z" fill="#5A49CA"/>
<path d="M1622.78 312.771L1646.3 299.614C1649.31 297.925 1651.12 294.898 1651.12 291.518C1651.12 288.138 1649.31 285.112 1646.3 283.423L1622.78 270.266C1619.76 268.575 1616.15 268.578 1613.14 270.275C1610.13 271.966 1608.33 274.989 1608.33 278.361V304.675C1608.33 308.048 1610.13 311.071 1613.14 312.762C1614.65 313.612 1616.31 314.036 1617.97 314.036C1619.62 314.036 1621.27 313.615 1622.78 312.771Z" fill="#5A49CA"/>
<path d="M1622.78 401.718L1646.3 388.561C1649.31 386.871 1651.12 383.845 1651.12 380.465C1651.12 377.085 1649.31 374.059 1646.3 372.369L1622.78 359.212C1619.76 357.521 1616.15 357.525 1613.14 359.222C1610.13 360.912 1608.33 363.935 1608.33 367.308V393.622C1608.33 396.994 1610.13 400.018 1613.14 401.708C1614.65 402.558 1616.31 402.983 1617.97 402.983C1619.62 402.983 1621.27 402.562 1622.78 401.718Z" fill="#5A49CA"/>
<path d="M403.829 -300.097L340.981 -186.737C332.912 -172.185 318.456 -163.497 302.311 -163.497C286.166 -163.497 271.709 -172.185 263.64 -186.737L200.793 -300.097C192.716 -314.661 192.732 -332.042 200.837 -346.594C208.913 -361.092 223.354 -369.751 239.463 -369.751L365.158 -369.751C381.267 -369.751 395.708 -361.092 403.785 -346.594C407.845 -339.305 409.873 -331.307 409.873 -323.304C409.873 -315.334 407.861 -307.365 403.829 -300.097Z" fill="#7262DB"/>
<path d="M403.829 -477.4L340.981 -590.76C332.912 -605.312 318.456 -614 302.311 -614C286.166 -614 271.709 -605.312 263.64 -590.76L200.793 -477.4C192.716 -462.835 192.732 -445.455 200.837 -430.903C208.913 -416.405 223.354 -407.746 239.463 -407.746L365.158 -407.746C381.267 -407.746 395.708 -416.405 403.785 -430.903C407.845 -438.191 409.873 -446.19 409.873 -454.193C409.873 -462.162 407.861 -470.132 403.829 -477.4Z" fill="#7262DB"/>
<path d="M403.829 188.4L340.981 301.76C332.912 316.312 318.456 325 302.311 325C286.166 325 271.709 316.312 263.64 301.76L200.793 188.4C192.716 173.835 192.732 156.455 200.837 141.903C208.913 127.405 223.354 118.746 239.463 118.746L365.158 118.746C381.267 118.746 395.708 127.405 403.785 141.903C407.845 149.191 409.873 157.19 409.873 165.193C409.873 173.162 407.861 181.132 403.829 188.4Z" fill="#7262DB"/>
<path d="M403.829 11.0972L340.981 -102.263C332.912 -116.815 318.456 -125.503 302.311 -125.503C286.166 -125.503 271.709 -116.815 263.64 -102.263L200.793 11.0971C192.716 25.6617 192.732 43.042 200.837 57.5941C208.913 72.0922 223.354 80.7512 239.463 80.7512L365.158 80.7512C381.267 80.7512 395.708 72.0922 403.785 57.5941C407.845 50.3056 409.873 42.3069 409.873 34.3041C409.873 26.3345 407.861 18.3649 403.829 11.0972Z" fill="#7262DB"/>
<path d="M415.918 -233.151L478.766 -346.511C486.834 -361.063 501.291 -369.751 517.436 -369.751C533.581 -369.751 548.038 -361.063 556.106 -346.511L618.954 -233.151C627.031 -218.586 627.015 -201.206 618.91 -186.654C610.834 -172.156 596.393 -163.497 580.284 -163.497L454.588 -163.497C438.479 -163.497 424.038 -172.156 415.962 -186.654C411.902 -193.942 409.874 -201.941 409.874 -209.944C409.874 -217.913 411.886 -225.883 415.918 -233.151Z" fill="#7262DB"/>
<path d="M-8.95558 -233.151L53.8921 -346.511C61.9606 -361.063 76.4175 -369.751 92.5624 -369.751C108.707 -369.751 123.164 -361.063 131.233 -346.511L194.08 -233.151C202.157 -218.586 202.141 -201.206 194.036 -186.654C185.96 -172.156 171.519 -163.497 155.41 -163.497L29.7147 -163.497C13.6058 -163.497 -0.835102 -172.156 -8.91158 -186.654C-12.9718 -193.942 -15 -201.941 -15 -209.944C-15 -217.913 -12.9879 -225.883 -8.95558 -233.151Z" fill="#7262DB"/>
<path d="M415.918 -55.849L478.766 57.5112C486.834 72.0632 501.291 80.7513 517.436 80.7513C533.581 80.7513 548.038 72.0632 556.106 57.5112L618.954 -55.849C627.031 -70.4135 627.015 -87.7938 618.91 -102.346C610.834 -116.844 596.393 -125.503 580.284 -125.503L454.588 -125.503C438.479 -125.503 424.039 -116.844 415.962 -102.346C411.902 -95.0574 409.874 -87.0588 409.874 -79.056C409.874 -71.0864 411.886 -63.1167 415.918 -55.849Z" fill="#7262DB"/>
<path d="M-8.95559 -55.849L53.8921 57.5112C61.9606 72.0633 76.4175 80.7514 92.5624 80.7514C108.707 80.7514 123.164 72.0633 131.233 57.5112L194.08 -55.849C202.157 -70.4135 202.141 -87.7938 194.037 -102.346C185.96 -116.844 171.519 -125.503 155.41 -125.503L29.7147 -125.503C13.6058 -125.503 -0.835105 -116.844 -8.91158 -102.346C-12.9718 -95.0575 -15 -87.0587 -15 -79.0559C-15 -71.0863 -12.9879 -63.1167 -8.95559 -55.849Z" fill="#7262DB"/>
</g>
</svg>
