<svg width="60" height="60" viewBox="0 0 60 60" fill="none" xmlns="http://www.w3.org/2000/svg">
<rect width="60" height="60" rx="14" fill="#F0EEFF"/>
<g clip-path="url(#clip0_22_53)">
<path d="M42.3947 25.5811C42.2395 25.2542 41.9099 25.0457 41.5479 25.0457H32.145L37.8363 15.4144C38.0075 15.1246 38.0102 14.7651 37.8434 14.4728C37.6765 14.1805 37.3657 13.9999 37.029 14L28.9957 14.0009C28.6623 14.001 28.354 14.178 28.186 14.4659L17.6423 32.5399C17.4731 32.8299 17.4719 33.1881 17.6391 33.4792C17.8063 33.7703 18.1164 33.9498 18.4521 33.9498H27.795L25.0738 44.8351C24.9673 45.2609 25.1707 45.7038 25.5632 45.9006C25.6971 45.9676 25.8407 46 25.9829 46C26.2576 46 26.5269 45.8793 26.7097 45.655L42.2744 26.5758C42.5032 26.2953 42.55 25.9081 42.3947 25.5811Z" fill="#6C5DD3"/>
</g>
<defs>
<clipPath id="clip0_22_53">
<rect width="32" height="32" fill="white" transform="translate(14 14)"/>
</clipPath>
</defs>
</svg>
