<svg width="1212" height="662" viewBox="0 0 1212 662" fill="none" xmlns="http://www.w3.org/2000/svg">
<rect width="1212" height="662" rx="24" fill="#F2F0FE"/>
<mask id="mask0_25_70" style="mask-type:alpha" maskUnits="userSpaceOnUse" x="0" y="0" width="1212" height="662">
<rect width="1212" height="662" rx="24" fill="#EDFDEC"/>
</mask>
<g mask="url(#mask0_25_70)">
<circle cx="1047" cy="62" r="301" fill="#FF9F59"/>
<circle cx="684" cy="703" r="170" fill="#D7D2F2"/>
<circle cx="49" cy="41" r="3" fill="#D3CCFF"/>
<circle cx="65" cy="41" r="3" fill="#D3CCFF"/>
<circle cx="81" cy="41" r="3" fill="#D3CCFF"/>
<circle cx="49" cy="57" r="3" fill="#D3CCFF"/>
<circle cx="65" cy="57" r="3" fill="#D3CCFF"/>
<circle cx="81" cy="57" r="3" fill="#D3CCFF"/>
<circle cx="49" cy="73" r="3" fill="#D3CCFF"/>
<circle cx="65" cy="73" r="3" fill="#D3CCFF"/>
<circle cx="81" cy="73" r="3" fill="#D3CCFF"/>
<circle cx="49" cy="89" r="3" fill="#D3CCFF"/>
<circle cx="65" cy="89" r="3" fill="#D3CCFF"/>
<circle cx="81" cy="89" r="3" fill="#D3CCFF"/>
<circle cx="592.778" cy="585.222" r="2.22222" transform="rotate(90 592.778 585.222)" fill="#6C5DD3"/>
<circle cx="592.778" cy="597.074" r="2.22222" transform="rotate(90 592.778 597.074)" fill="#6C5DD3"/>
<circle cx="592.778" cy="608.926" r="2.22222" transform="rotate(90 592.778 608.926)" fill="#6C5DD3"/>
<circle cx="580.926" cy="585.222" r="2.22222" transform="rotate(90 580.926 585.222)" fill="#6C5DD3"/>
<circle cx="580.926" cy="597.074" r="2.22222" transform="rotate(90 580.926 597.074)" fill="#6C5DD3"/>
<circle cx="580.926" cy="608.926" r="2.22222" transform="rotate(90 580.926 608.926)" fill="#6C5DD3"/>
<circle cx="569.074" cy="585.222" r="2.22222" transform="rotate(90 569.074 585.222)" fill="#6C5DD3"/>
<circle cx="569.074" cy="597.074" r="2.22222" transform="rotate(90 569.074 597.074)" fill="#6C5DD3"/>
<circle cx="569.074" cy="608.926" r="2.22222" transform="rotate(90 569.074 608.926)" fill="#6C5DD3"/>
<circle cx="557.222" cy="585.222" r="2.22222" transform="rotate(90 557.222 585.222)" fill="#6C5DD3"/>
<circle cx="546.222" cy="585.222" r="2.22222" transform="rotate(90 546.222 585.222)" fill="#6C5DD3"/>
<circle cx="535.222" cy="585.222" r="2.22222" transform="rotate(90 535.222 585.222)" fill="#6C5DD3"/>
<circle cx="557.222" cy="597.074" r="2.22222" transform="rotate(90 557.222 597.074)" fill="#6C5DD3"/>
<circle cx="546.222" cy="597.074" r="2.22222" transform="rotate(90 546.222 597.074)" fill="#6C5DD3"/>
<circle cx="535.222" cy="597.074" r="2.22222" transform="rotate(90 535.222 597.074)" fill="#6C5DD3"/>
<circle cx="557.222" cy="608.926" r="2.22222" transform="rotate(90 557.222 608.926)" fill="#6C5DD3"/>
<circle cx="546.222" cy="608.926" r="2.22222" transform="rotate(90 546.222 608.926)" fill="#6C5DD3"/>
<circle cx="535.222" cy="608.926" r="2.22222" transform="rotate(90 535.222 608.926)" fill="#6C5DD3"/>
</g>
</svg>
